<svg width="1600" height="900" viewBox="0 0 1600 900" fill="none" xmlns="http://www.w3.org/2000/svg">
<g clip-path="url(#clip0_2_10)">
<g opacity="0.24" filter="url(#filter0_f_2_10)">
<path opacity="0.24" d="M811.759 95.9214C709.796 185.263 649.122 145.49 419.681 176.952C273.215 197.037 201.304 -18.6347 131.255 168.642C60.2755 358.406 65.543 553.234 131.453 586.478C197.362 619.721 344.866 634.485 384.863 719.672C424.859 804.858 352.303 830.503 595.099 849.895C837.894 869.287 972.91 819.867 1051.86 703.827C1130.81 587.788 1433.59 880.216 1484.85 574.099C1536.11 267.982 1538.74 278.461 1442.41 176.653C1346.08 74.8445 1278.2 3.80921 1127.79 74.4516C977.378 145.094 913.722 6.5795 811.759 95.9214Z" fill="url(#paint0_linear_2_10)"/>
<path opacity="0.24" d="M811.759 95.9214C709.796 185.263 649.122 145.49 419.681 176.952C273.215 197.037 201.304 -18.6347 131.255 168.642C60.2755 358.406 65.543 553.234 131.453 586.478C197.362 619.721 344.866 634.485 384.863 719.672C424.859 804.858 352.303 830.503 595.099 849.895C837.894 869.287 972.91 819.867 1051.86 703.827C1130.81 587.788 1433.59 880.216 1484.85 574.099C1536.11 267.982 1538.74 278.461 1442.41 176.653C1346.08 74.8445 1278.2 3.80921 1127.79 74.4516C977.378 145.094 913.722 6.5795 811.759 95.9214Z" fill="url(#paint1_linear_2_10)"/>
</g>
<g opacity="0.8" filter="url(#filter1_f_2_10)">
<path opacity="0.8" d="M502.5 221.5C271.284 205.269 135.234 523.799 206 622.304C276.766 720.809 495.5 740.683 782.5 808.5C1069.5 876.317 1307.75 812.567 1348.83 555.175C1389.91 297.782 1392.02 306.593 1314.82 220.99C1237.62 135.386 1143.54 161.891 1023 221.29C902.464 280.688 690.223 234.678 502.5 221.5Z" fill="url(#paint2_linear_2_10)"/>
<path opacity="0.8" d="M502.5 221.5C271.284 205.269 135.234 523.799 206 622.304C276.766 720.809 495.5 740.683 782.5 808.5C1069.5 876.317 1307.75 812.567 1348.83 555.175C1389.91 297.782 1392.02 306.593 1314.82 220.99C1237.62 135.386 1143.54 161.891 1023 221.29C902.464 280.688 690.223 234.678 502.5 221.5Z" fill="url(#paint3_linear_2_10)"/>
</g>
</g>
<defs>
<filter id="filter0_f_2_10" x="-20" y="-54" width="1640" height="1008" filterUnits="userSpaceOnUse" color-interpolation-filters="sRGB">
<feFlood flood-opacity="0" result="BackgroundImageFix"/>
<feBlend mode="normal" in="SourceGraphic" in2="BackgroundImageFix" result="shape"/>
<feGaussianBlur stdDeviation="50" result="effect1_foregroundBlur_2_10"/>
</filter>
<filter id="filter1_f_2_10" x="87.2375" y="66.307" width="1389.76" height="867.435" filterUnits="userSpaceOnUse" color-interpolation-filters="sRGB">
<feFlood flood-opacity="0" result="BackgroundImageFix"/>
<feBlend mode="normal" in="SourceGraphic" in2="BackgroundImageFix" result="shape"/>
<feGaussianBlur stdDeviation="50" result="effect1_foregroundBlur_2_10"/>
</filter>
<linearGradient id="paint0_linear_2_10" x1="1520" y1="577.198" x2="316.251" y2="-98.2392" gradientUnits="userSpaceOnUse">
<stop stop-color="#2A0C83"/>
<stop offset="1" stop-color="#44ACDA"/>
</linearGradient>
<linearGradient id="paint1_linear_2_10" x1="800" y1="51.9073" x2="800" y2="854" gradientUnits="userSpaceOnUse">
<stop stop-color="#0C0A1D" stop-opacity="0"/>
<stop offset="1" stop-color="#0C0A1D"/>
</linearGradient>
<linearGradient id="paint2_linear_2_10" x1="1377" y1="605.045" x2="382.407" y2="47.0969" gradientUnits="userSpaceOnUse">
<stop stop-color="#2A0C83"/>
<stop offset="1" stop-color="#44ACDA"/>
</linearGradient>
<linearGradient id="paint3_linear_2_10" x1="782.119" y1="171.187" x2="782.119" y2="833.742" gradientUnits="userSpaceOnUse">
<stop stop-color="#0C0A1D" stop-opacity="0"/>
<stop offset="1" stop-color="#0C0A1D"/>
</linearGradient>
<clipPath id="clip0_2_10">
<rect width="1600" height="900" fill="white"/>
</clipPath>
</defs>
</svg>
